<?xml version="1.0" encoding="UTF-8"?>
<!-- Generator: Adobe Illustrator 18.0.0, SVG Export Plug-In . SVG Version: 6.00 Build 0)  -->
<!DOCTYPE svg PUBLIC "-//W3C//DTD SVG 1.1//EN" "http://www.w3.org/Graphics/SVG/1.1/DTD/svg11.dtd">
<svg version="1.1" id="Layer_1" xmlns="http://www.w3.org/2000/svg" xmlns:xlink="http://www.w3.org/1999/xlink" x="0px" y="0px" viewBox="237.6 408.4 120 25" enable-background="new 237.6 408.4 120 25" xml:space="preserve">
<path d="M285.8,431.5c-0.1-0.1-0.1-0.3,0-0.4c0,0,5.9-5.8,6.2-6c0.3-0.3,0.8,0.1,0.8,0.1s8-7.7,8.3-7.9c0.2-0.2,2.2-2.1,2.2-2.3  c0-0.1,0.3-1.4,0.9-2c1.7-1.8,4-3.6,4-3.6s-2.2,2.2-3.2,3.3c-1,1.2-0.8,1.5-0.5,1.7c0.2,0.2,0.6,0.5,1.8-0.5s3.4-3.2,3.4-3.2  s-1.9,2.2-3.7,3.9c-0.7,0.6-2,1-2.1,0.9c-0.1,0-2.1,1.9-2.3,2.1c-0.2,0.2-8.1,8.1-8.1,8.1s0.4,0.5,0.1,0.8c-0.3,0.3-6.2,6-6.2,6  c-0.1,0.1-0.3,0.1-0.4,0c-0.1-0.1-0.6-0.4-0.6-0.4S285.9,431.6,285.8,431.5z M289.4,409.1c1.5,1.7,3,3.4,4.5,5.1  c0.1,0.1,0.1,0.2,0,0.3c-0.3,0.3-1.1,1-1.2,1.1c0,0.1,1.8,1.8,2,2c0.2,0.2,8.3,7.9,8.3,7.9s0.5-0.4,0.8-0.1c0.3,0.3,6.2,6,6.2,6  c0.1,0.1,0.1,0.2,0,0.4c-0.1,0.1-0.4,0.6-0.4,0.6s-0.5,0.3-0.6,0.4c-0.1,0.1-0.3,0.1-0.4,0c0,0-5.9-5.7-6.2-6  c-0.3-0.3,0.1-0.8,0.1-0.8s-7.9-7.8-8.1-8.1c-0.2-0.2-1.9-1.9-2-1.9c-0.2,0.2-0.8,0.9-1.1,1.2c-0.1,0.1-0.2,0.1-0.3,0  c-1.7-1.5-3.5-2.9-5.2-4.4c-0.1-0.1-0.1-0.2,0-0.3c1.1-1.2,2.3-2.4,3.5-3.4C289.1,409,289.3,409,289.4,409.1z M287.8,411.7  c1.2,1.1,2.4,2.3,3.6,3.4c0.1,0.1,0.2,0.1,0.2,0.1c0,0,0,0,0.1-0.1c0,0,0-0.1-0.1-0.2c-1.2-1.2-2.3-2.3-3.5-3.5  c-0.1-0.1-0.2-0.1-0.3,0c0,0,0,0-0.1,0.1C287.7,411.5,287.7,411.6,287.8,411.7z M290.9,415.6c-1.3-1.1-2.5-2.2-3.8-3.3  c-0.1-0.1-0.2-0.1-0.3,0c0,0,0,0.1-0.1,0.1c-0.1,0.1,0,0.2,0.1,0.3c1.3,1.1,2.6,2.1,3.8,3.2c0.1,0.1,0.2,0.1,0.2,0.1c0,0,0,0,0-0.1  C291.1,415.8,291,415.7,290.9,415.6z M288.9,410.4C288.8,410.5,288.8,410.5,288.9,410.4c-0.1,0.1-0.1,0.2,0,0.3  c1.1,1.2,2.2,2.4,3.3,3.7c0.1,0.1,0.2,0.1,0.2,0.1c0,0,0,0,0.1,0c0,0,0-0.1-0.1-0.2c-1.1-1.2-2.2-2.5-3.3-3.7  C289,410.4,288.9,410.4,288.9,410.4z M288.8,421.3h-51.2v0.6h51.2V421.3z M357.6,421.3h-51.2v0.6h51.2V421.3z"/>
</svg>