<svg xmlns="http://www.w3.org/2000/svg" xmlns:xlink="http://www.w3.org/1999/xlink" version="1.1" x="0px" y="0px" viewBox="0 0 100 125" style="enable-background:new 0 0 100 100;" xml:space="preserve"><g><path d="M87.9,61.53c-0.33-2.84-1.62-5.39-3.62-7.19c-1.75-1.58-3.87-2.43-6.06-2.43c-0.33,0-0.67,0.02-1,0.06   c-1.48,0.17-2.88,0.73-4.09,1.63l-0.28-2.37c-0.38,0.16-0.79,0.27-1.22,0.33c-0.04,0.01-0.09,0.01-0.13,0.02   c-0.25,0.03-0.5,0.04-0.75,0.03l0.45,3.82c0.08,0.68-0.13,1.36-0.6,1.9c-0.45,0.52-1.09,0.86-1.8,0.94   c-0.12,0.01-0.23,0.02-0.35,0.02c-0.59,0-1.16-0.18-1.63-0.52c-0.58-0.42-0.94-1.02-1.02-1.71l-0.55-4.69   c-0.63,0-1.25-0.12-1.83-0.34c-0.83,1.43-2.57,1.8-3.88,1.96c-1.11,0.13-2.2-0.09-3.12-0.63c-0.77,0.74-1.78,1.2-2.89,1.33   c-0.39,0.05-0.77,0.05-1.14,0.01c-0.44-0.04-0.87-0.15-1.27-0.3c0,0.04,0,0.09,0,0.14l2.58,21.87c0.13,1.1,0.68,2.07,1.54,2.76   c0.74,0.58,1.63,0.89,2.55,0.89c0.16,0,0.33-0.01,0.49-0.03l13.5-1.59c2.26-0.27,3.88-2.32,3.62-4.58l-0.02-0.17   c1.08,0.46,2.22,0.69,3.37,0.69c0.33,0,0.66-0.02,0.99-0.06c2.53-0.3,4.77-1.7,6.31-3.94C87.59,67.15,88.24,64.37,87.9,61.53z    M59,73.61c-0.02,0-0.05,0-0.07,0c-0.31,0-0.58-0.23-0.62-0.55l-1.92-16.23c-0.04-0.34,0.2-0.65,0.55-0.69   c0.34-0.04,0.65,0.2,0.69,0.55l1.92,16.23C59.58,73.26,59.34,73.57,59,73.61z M64.54,72.96c-0.02,0-0.05,0-0.07,0   c-0.31,0-0.58-0.23-0.62-0.55l-1.92-16.23c-0.04-0.34,0.2-0.65,0.55-0.69c0.34-0.04,0.65,0.2,0.69,0.55l1.92,16.23   C65.13,72.61,64.88,72.92,64.54,72.96z M70.08,72.3c-0.02,0-0.05,0-0.07,0c-0.31,0-0.58-0.23-0.62-0.55l-1.41-11.93   c-0.04-0.34,0.2-0.65,0.55-0.69c0.34-0.04,0.65,0.2,0.69,0.55l1.41,11.93C70.67,71.95,70.42,72.26,70.08,72.3z M74.95,69   C74.95,69,74.95,69,74.95,69l0.26,2.22L74.95,69z M79.24,68.96c-1.65,0.2-3.29-0.47-4.5-1.83l-0.94-7.98c0,0,0,0,0,0   c0.87-1.61,2.3-2.64,3.95-2.83c3.01-0.36,5.79,2.19,6.2,5.68C84.35,65.49,82.24,68.61,79.24,68.96z"/><path d="M53.4,52.47c0.98-0.12,1.86-0.58,2.46-1.3c0.21-0.26,0.59-0.3,0.85-0.1c0.75,0.57,1.71,0.81,2.69,0.7   c1.84-0.22,2.8-0.75,3.12-1.74c0.06-0.18,0.19-0.32,0.37-0.39c0.17-0.07,0.37-0.06,0.53,0.04c0.69,0.39,1.49,0.54,2.31,0.44   c0.02,0,0.05,0,0.07,0c0.14,0,0.28,0.05,0.39,0.13c0.13,0.1,0.21,0.25,0.23,0.42l0.62,5.28c0.04,0.33,0.22,0.63,0.51,0.84   c0.31,0.22,0.7,0.32,1.1,0.27c0.4-0.05,0.76-0.23,1.01-0.52c0.24-0.27,0.34-0.61,0.3-0.94l-0.54-4.59   c-0.02-0.2,0.05-0.39,0.19-0.53c0.14-0.13,0.35-0.19,0.54-0.16c0.39,0.08,0.79,0.09,1.2,0.04c1.95-0.23,3.38-1.85,3.17-3.61   c-0.21-1.76-1.97-3-3.92-2.77c-0.58,0.07-1.11,0.25-1.59,0.55c-0.27,0.17-0.62,0.11-0.82-0.14c-0.75-0.94-2.01-1.43-3.29-1.28   c-0.73,0.09-1.42,0.37-1.97,0.82c-0.16,0.13-0.36,0.17-0.56,0.12c-0.19-0.05-0.35-0.19-0.42-0.38c-0.53-1.41-2.11-2.28-3.76-2.09   c-1.95,0.23-3.38,1.85-3.17,3.61c0.01,0.11,0.03,0.22,0.06,0.33c0.05,0.22-0.02,0.45-0.18,0.6c-0.17,0.15-0.4,0.2-0.61,0.13   c-0.53-0.17-1.08-0.22-1.65-0.16c-0.96,0.11-1.81,0.56-2.41,1.25c-0.59,0.68-0.85,1.51-0.75,2.36c0.1,0.84,0.56,1.59,1.28,2.12   C51.51,52.35,52.44,52.58,53.4,52.47z"/><path d="M50.38,45.59c-0.31-0.24-0.68-0.51-0.93-0.57c-0.55-0.14-1.11-0.17-1.65-0.07c-0.22,0.04-0.45-0.04-0.59-0.22   c-0.14-0.17-0.18-0.41-0.1-0.62c0.04-0.1,0.08-0.21,0.1-0.32c0.21-0.82,0.06-1.69-0.42-2.44c-0.5-0.77-1.29-1.33-2.22-1.57   c-1.61-0.42-3.29,0.23-4.01,1.55c-0.1,0.18-0.27,0.3-0.47,0.32c-0.2,0.03-0.4-0.05-0.53-0.19c-0.49-0.52-1.12-0.9-1.84-1.08   c-1.25-0.33-2.57-0.02-3.44,0.81c-0.23,0.22-0.59,0.23-0.83,0.03c-0.43-0.36-0.94-0.62-1.5-0.77c-1.9-0.5-3.82,0.49-4.26,2.21   c-0.45,1.71,0.74,3.51,2.64,4.01c0.39,0.1,0.79,0.14,1.19,0.12c0.2-0.01,0.39,0.07,0.52,0.23c0.13,0.15,0.17,0.36,0.12,0.55   l-1.17,4.48c-0.18,0.69,0.31,1.42,1.1,1.62c0.79,0.21,1.57-0.19,1.75-0.88l1.34-5.14c0.04-0.16,0.15-0.3,0.29-0.38   c0.14-0.08,0.31-0.11,0.47-0.07c0.8,0.21,1.61,0.17,2.35-0.12c0.17-0.07,0.37-0.05,0.53,0.04c0.16,0.09,0.28,0.25,0.31,0.44   c0.18,1.02,1.06,1.69,2.85,2.15c0.96,0.25,1.94,0.14,2.76-0.32c0.29-0.16,0.66-0.07,0.83,0.22c0.5,0.8,1.3,1.38,2.26,1.63   c0.3,0.08,0.6,0.12,0.9,0.13c-0.26-0.47-0.42-0.98-0.48-1.52c-0.14-1.19,0.23-2.37,1.05-3.32C49.61,46.16,49.98,45.84,50.38,45.59z   "/><path d="M44.84,50.72c-0.99,0.4-2.09,0.47-3.17,0.19c-1.27-0.33-2.95-0.94-3.57-2.47c-0.6,0.15-1.23,0.17-1.86,0.09l-1.19,4.57   c-0.29,1.13-1.36,1.87-2.54,1.87c-0.24,0-0.49-0.03-0.73-0.09c-1.45-0.38-2.34-1.79-1.99-3.14L30.76,48   c-0.25-0.03-0.49-0.07-0.74-0.14c-0.04-0.01-0.09-0.02-0.13-0.04c-0.41-0.12-0.8-0.29-1.16-0.49l-0.6,2.31   c-0.4-0.39-0.83-0.74-1.29-1.04c-0.78-0.52-1.63-0.9-2.54-1.14c-2.47-0.64-5.06-0.16-7.32,1.37c-2.23,1.51-3.85,3.87-4.57,6.63   c-0.72,2.76-0.46,5.61,0.75,8.02c1.22,2.44,3.24,4.13,5.71,4.78c0.7,0.18,1.42,0.27,2.14,0.27c0.76,0,1.52-0.1,2.27-0.3   c0.38-0.1,0.76-0.23,1.13-0.39c0.18-0.07,0.31-0.23,0.36-0.41l-0.33,1.28c-0.19,0.75-0.09,1.52,0.3,2.19   c0.39,0.66,1.01,1.14,1.76,1.33l13.15,3.43c0.75,0.19,1.52,0.09,2.19-0.3c0.66-0.39,1.14-1.01,1.33-1.76l5.48-21   c-0.38-0.01-0.76-0.07-1.13-0.17C46.44,52.15,45.5,51.55,44.84,50.72z M24.68,62.82c-1.39,1.18-3.1,1.62-4.71,1.2   c-2.93-0.76-4.59-4.15-3.7-7.54c0.89-3.4,3.99-5.54,6.92-4.77c1.61,0.42,2.89,1.64,3.53,3.35L24.68,62.82z M32.37,56.52   l-3.04,11.62c-0.07,0.28-0.33,0.47-0.6,0.47c-0.05,0-0.11-0.01-0.16-0.02c-0.33-0.09-0.53-0.43-0.44-0.76l3.04-11.62   c0.09-0.33,0.43-0.53,0.76-0.45C32.26,55.84,32.46,56.18,32.37,56.52z M38.87,53.74l-4.13,15.81c-0.07,0.28-0.33,0.47-0.6,0.47   c-0.05,0-0.11-0.01-0.16-0.02c-0.33-0.09-0.53-0.43-0.45-0.76l4.13-15.81c0.09-0.33,0.43-0.53,0.76-0.45   C38.75,53.07,38.95,53.41,38.87,53.74z M44.27,55.15l-4.13,15.81c-0.07,0.28-0.33,0.47-0.6,0.47c-0.05,0-0.11-0.01-0.16-0.02   c-0.33-0.09-0.53-0.43-0.45-0.76l4.13-15.81c0.09-0.33,0.43-0.53,0.76-0.45C44.15,54.48,44.35,54.82,44.27,55.15z"/><path d="M61.16,34.73c1.47,0,2.67-1.2,2.67-2.67c0-1.47-1.2-2.67-2.67-2.67s-2.67,1.2-2.67,2.67   C58.49,33.53,59.69,34.73,61.16,34.73z"/><path d="M45.3,30.9c1.76,0,3.18-1.43,3.18-3.18c0-1.76-1.43-3.19-3.18-3.19s-3.19,1.43-3.19,3.19C42.12,29.47,43.54,30.9,45.3,30.9   z"/><path d="M55.55,25.77c1.33,0,2.42-1.08,2.42-2.42c0-1.33-1.08-2.42-2.42-2.42c-1.33,0-2.42,1.08-2.42,2.42   C53.13,24.69,54.22,25.77,55.55,25.77z"/><path d="M63.91,25.46c0.17,0.08,0.34,0.14,0.51,0.18c0.15,0.04,0.29,0.07,0.44,0.09c0.02,0.15,0.05,0.29,0.09,0.44   c0.05,0.17,0.11,0.34,0.18,0.51c0.04,0.09,0.08,0.17,0.13,0.26c0.05,0.09,0.1,0.17,0.17,0.26c0.07-0.09,0.12-0.17,0.17-0.26   c0.05-0.09,0.09-0.17,0.13-0.26c0.08-0.17,0.14-0.34,0.18-0.51c0.04-0.15,0.07-0.29,0.09-0.44c0.15-0.02,0.29-0.05,0.44-0.09   c0.17-0.05,0.34-0.11,0.51-0.18c0.09-0.04,0.17-0.08,0.26-0.13c0.09-0.05,0.17-0.1,0.26-0.17c-0.09-0.07-0.17-0.12-0.26-0.17   c-0.09-0.05-0.17-0.09-0.26-0.13c-0.17-0.08-0.34-0.14-0.51-0.18c-0.15-0.04-0.29-0.07-0.44-0.09c-0.02-0.15-0.05-0.29-0.09-0.44   c-0.05-0.17-0.11-0.34-0.18-0.51c-0.04-0.09-0.08-0.17-0.13-0.26c-0.05-0.09-0.1-0.17-0.17-0.26c-0.07,0.09-0.12,0.17-0.17,0.26   c-0.05,0.09-0.09,0.17-0.13,0.26c-0.08,0.17-0.14,0.34-0.18,0.51c-0.04,0.15-0.07,0.29-0.09,0.44c-0.15,0.02-0.29,0.05-0.44,0.09   c-0.17,0.05-0.34,0.11-0.51,0.18c-0.09,0.04-0.17,0.08-0.26,0.13c-0.08,0.05-0.17,0.1-0.26,0.17c0.09,0.07,0.17,0.12,0.26,0.17   C63.74,25.37,63.83,25.42,63.91,25.46z"/><path d="M67.74,32.24c0.09,0.05,0.17,0.09,0.26,0.13c0.17,0.08,0.34,0.14,0.51,0.18c0.15,0.04,0.29,0.07,0.44,0.09   c0.02,0.15,0.05,0.29,0.09,0.44c0.05,0.17,0.11,0.34,0.18,0.51c0.04,0.09,0.08,0.17,0.13,0.26c0.05,0.09,0.1,0.17,0.17,0.26   c0.07-0.09,0.12-0.17,0.17-0.26c0.05-0.09,0.09-0.17,0.13-0.26c0.08-0.17,0.14-0.34,0.18-0.51c0.04-0.15,0.07-0.29,0.09-0.44   c0.15-0.02,0.29-0.05,0.44-0.09c0.17-0.05,0.34-0.11,0.51-0.18c0.09-0.04,0.17-0.08,0.26-0.13c0.09-0.05,0.17-0.1,0.26-0.17   c-0.09-0.07-0.17-0.12-0.26-0.17c-0.09-0.05-0.17-0.09-0.26-0.13c-0.17-0.08-0.34-0.14-0.51-0.18c-0.15-0.04-0.29-0.07-0.44-0.09   c-0.02-0.15-0.05-0.29-0.09-0.44c-0.05-0.17-0.11-0.34-0.18-0.51c-0.04-0.09-0.08-0.17-0.13-0.26c-0.05-0.09-0.1-0.17-0.17-0.26   c-0.07,0.08-0.12,0.17-0.17,0.26c-0.05,0.09-0.09,0.17-0.13,0.26c-0.08,0.17-0.14,0.34-0.18,0.51c-0.04,0.15-0.07,0.29-0.09,0.44   c-0.15,0.02-0.29,0.05-0.44,0.09c-0.17,0.05-0.34,0.11-0.51,0.18c-0.08,0.04-0.17,0.08-0.26,0.13c-0.09,0.05-0.17,0.1-0.26,0.17   C67.57,32.13,67.66,32.19,67.74,32.24z"/><path d="M38.3,34.41c0.17,0.08,0.34,0.14,0.51,0.18c0.15,0.04,0.29,0.07,0.44,0.09c0.02,0.15,0.05,0.29,0.09,0.44   c0.05,0.17,0.11,0.34,0.18,0.51c0.04,0.09,0.08,0.17,0.13,0.26c0.05,0.09,0.1,0.17,0.17,0.26c0.07-0.09,0.12-0.17,0.17-0.26   c0.05-0.09,0.09-0.17,0.13-0.26c0.08-0.17,0.14-0.34,0.18-0.51c0.04-0.15,0.07-0.29,0.09-0.44c0.15-0.02,0.29-0.05,0.44-0.09   c0.17-0.05,0.34-0.11,0.51-0.18c0.09-0.04,0.17-0.08,0.26-0.13c0.09-0.05,0.17-0.1,0.26-0.17c-0.09-0.07-0.17-0.12-0.26-0.17   c-0.09-0.05-0.17-0.09-0.26-0.13c-0.17-0.08-0.34-0.14-0.51-0.18c-0.15-0.04-0.29-0.07-0.44-0.09c-0.02-0.15-0.05-0.29-0.09-0.44   c-0.05-0.17-0.11-0.34-0.18-0.51c-0.04-0.08-0.08-0.17-0.13-0.26c-0.05-0.09-0.1-0.17-0.17-0.26c-0.07,0.09-0.12,0.17-0.17,0.26   c-0.05,0.09-0.09,0.17-0.13,0.26c-0.08,0.17-0.14,0.34-0.18,0.51c-0.04,0.15-0.07,0.29-0.09,0.44c-0.15,0.02-0.29,0.05-0.44,0.09   c-0.17,0.05-0.34,0.11-0.51,0.18c-0.08,0.04-0.17,0.08-0.26,0.13c-0.09,0.05-0.17,0.1-0.26,0.17c0.09,0.07,0.17,0.12,0.26,0.17   C38.13,34.33,38.22,34.37,38.3,34.41z"/></g><text x="0" y="115" fill="#000000" font-size="5px" font-weight="bold" font-family="'Helvetica Neue', Helvetica, Arial-Unicode, Arial, Sans-serif">Created by zaenul yahya</text><text x="0" y="120" fill="#000000" font-size="5px" font-weight="bold" font-family="'Helvetica Neue', Helvetica, Arial-Unicode, Arial, Sans-serif">from the Noun Project</text></svg>