<svg xmlns:dc="http://purl.org/dc/elements/1.1/" xmlns:cc="http://creativecommons.org/ns#" xmlns:rdf="http://www.w3.org/1999/02/22-rdf-syntax-ns#" xmlns:svg="http://www.w3.org/2000/svg" xmlns="http://www.w3.org/2000/svg" xmlns:sodipodi="http://sodipodi.sourceforge.net/DTD/sodipodi-0.dtd" xmlns:inkscape="http://www.inkscape.org/namespaces/inkscape" viewBox="0 0 16.933333 21.1666675" version="1.1" x="0px" y="0px"><g transform="translate(0,-280.06665)"><path style="color:#000000;font-style:normal;font-variant:normal;font-weight:normal;font-stretch:normal;font-size:medium;line-height:normal;font-family:sans-serif;font-variant-ligatures:normal;font-variant-position:normal;font-variant-caps:normal;font-variant-numeric:normal;font-variant-alternates:normal;font-feature-settings:normal;text-indent:0;text-align:start;text-decoration:none;text-decoration-line:none;text-decoration-style:solid;text-decoration-color:#000000;letter-spacing:normal;word-spacing:normal;text-transform:none;writing-mode:lr-tb;direction:ltr;text-orientation:mixed;dominant-baseline:auto;baseline-shift:baseline;text-anchor:start;white-space:normal;shape-padding:0;clip-rule:nonzero;display:inline;overflow:visible;visibility:visible;opacity:1;isolation:auto;mix-blend-mode:normal;color-interpolation:sRGB;color-interpolation-filters:linearRGB;solid-color:#000000;solid-opacity:1;vector-effect:none;fill:#000000;fill-opacity:1;fill-rule:nonzero;stroke:none;stroke-width:0.5291667;stroke-linecap:butt;stroke-linejoin:round;stroke-miterlimit:4;stroke-dasharray:none;stroke-dashoffset:0;stroke-opacity:1;color-rendering:auto;image-rendering:auto;shape-rendering:auto;text-rendering:auto;enable-background:accumulate" d="m 4.4984335,280.59633 c -0.4351611,0 -0.7947819,0.35756 -0.7947819,0.79272 0,0.36693 0.256804,0.67764 0.5978948,0.76688 l -1.0862389,1.73891 a 0.26460982,0.26460982 0 0 0 -0.04082,0.14108 v 10.58385 a 0.26460982,0.26460982 0 0 0 0.06253,0.16795 l 1.3218819,1.58801 a 0.26460982,0.26460982 0 0 0 0.2030891,0.0956 h 7.4083345 a 0.26460982,0.26460982 0 0 0 0.203086,-0.0956 l 1.324467,-1.58801 a 0.26460982,0.26460982 0 0 0 0.06046,-0.16795 v -10.58385 a 0.26460982,0.26460982 0 0 0 -0.04083,-0.14108 l -1.08572,-1.73839 c 0.341212,-0.0888 0.597379,-0.40007 0.597379,-0.7674 0,-0.43516 -0.358071,-0.79272 -0.793234,-0.79272 z m 0,0.52917 h 7.9375005 c 0.151159,0 0.263551,0.1124 0.263551,0.26355 0,0.15116 -0.112392,0.26562 -0.263551,0.26562 H 4.4984335 c -0.151157,0 -0.265615,-0.11446 -0.265615,-0.26562 0,-0.15115 0.114458,-0.26355 0.265615,-0.26355 z m 0.41031,1.05885 h 7.1153295 l 0.991156,1.58543 h -1.374077 c -0.352867,0 -0.352867,0.52969 0,0.52969 h 1.588016 v 10.05468 H 3.7036516 v -10.05468 h 5.556766 c 0.3528639,0 0.3528639,-0.52969 0,-0.52969 H 3.9175905 Z m 5.4100075,1.58543 c -0.3528646,0 -0.3528646,0.52969 0,0.52969 H 10.5823 c 0.352867,0 0.352867,-0.52969 0,-0.52969 z m -1.8515675,2.38332 c -1.7503701,0 -3.175516,1.42308 -3.175516,3.17345 0,1.75037 1.4251459,3.17603 3.175516,3.17603 1.7503725,0 3.1739685,-1.42566 3.1739685,-3.17603 0,-1.75037 -1.423596,-3.17345 -3.1739685,-3.17345 z m 0,0.52917 c 1.4643891,0 2.6448015,1.17989 2.6448015,2.64428 0,1.46439 -1.1804124,2.64687 -2.6448015,2.64687 -1.464387,0 -2.6463501,-1.18248 -2.6463501,-2.64687 0,-1.46439 1.1819631,-2.64428 2.6463501,-2.64428 z m -4.4622591,8.20105 h 8.9234866 l -0.881084,1.05885 H 4.8870394 Z"/></g><text x="0" y="31.933334" fill="#000000" font-size="5px" font-weight="bold" font-family="'Helvetica Neue', Helvetica, Arial-Unicode, Arial, Sans-serif">Created by Nawicon</text><text x="0" y="36.933334" fill="#000000" font-size="5px" font-weight="bold" font-family="'Helvetica Neue', Helvetica, Arial-Unicode, Arial, Sans-serif">from the Noun Project</text></svg>